<svg xmlns="http://www.w3.org/2000/svg" width="14.431" height="14.418" viewBox="0 0 14.431 14.418"><defs><style>.a{fill:#b4bfc4;}</style></defs><path class="a" d="M20.975,8.594l-.051-.051a3.424,3.424,0,0,0-4.823,0l-3.074,3.074a3.424,3.424,0,0,0,0,4.823l.051.051a3.075,3.075,0,0,0,.357.306l1.121-1.121a2,2,0,0,1-.374-.289l-.051-.051a1.866,1.866,0,0,1,0-2.615L17.2,9.647a1.866,1.866,0,0,1,2.615,0l.051.051a1.866,1.866,0,0,1,0,2.615l-1.393,1.393a4.729,4.729,0,0,1,.34,1.868l2.157-2.157A3.393,3.393,0,0,0,20.975,8.594ZM16.44,13.027a3.075,3.075,0,0,0-.357-.306l-1.121,1.121a2,2,0,0,1,.374.289l.051.051a1.866,1.866,0,0,1,0,2.615l-3.074,3.074a1.866,1.866,0,0,1-2.615,0l-.051-.051a1.866,1.866,0,0,1,0-2.615l1.393-1.393a4.729,4.729,0,0,1-.34-1.868L8.543,16.1a3.424,3.424,0,0,0,0,4.823l.051.051a3.424,3.424,0,0,0,4.823,0L16.491,17.9a3.424,3.424,0,0,0,0-4.823Z" transform="translate(-7.55 -7.55)"/></svg>